<svg id="구성_요소_30_2" data-name="구성 요소 30 – 2" xmlns="http://www.w3.org/2000/svg" width="24" height="24" viewBox="0 0 24 24">
  <rect id="Boundary" width="24" height="24" fill="none"/>
  <path id="_Color" data-name=" ↳Color" d="M8,19a1.977,1.977,0,0,1-2-1.949h4A1.977,1.977,0,0,1,8,19Zm8-2.924H0V15.1l2-1.948V8.282A6.785,6.785,0,0,1,3.174,4.326,5.528,5.528,0,0,1,6.5,2.124V1.462a1.5,1.5,0,0,1,3,0v.662A5.535,5.535,0,0,1,12.823,4.33,6.776,6.776,0,0,1,14,8.282v4.872L16,15.1v.973Z" transform="translate(4 2)"/>
</svg>
