<svg xmlns="http://www.w3.org/2000/svg" xmlns:xlink="http://www.w3.org/1999/xlink" viewBox="0 0 32.32 27.75"><defs><style>.cls-1{fill:none;}.cls-2{clip-path:url(#clip-path);}.cls-3{fill:#f29345;}</style><clipPath id="clip-path" transform="translate(0 0)"><rect class="cls-1" width="32.31" height="27.74"/></clipPath></defs><g id="레이어_2" data-name="레이어 2"><g id="레이어_1-2" data-name="레이어 1"><g id="그룹_983" data-name="그룹 983"><g class="cls-2"><g id="그룹_508-2" data-name="그룹 508-2"><path id="패스_7986-2" data-name="패스 7986-2" class="cls-3" d="M26.66,23.65C26,23,20.28,17.87,15.93,14.46a6.33,6.33,0,0,1-2.39-5.91,5.43,5.43,0,0,0-2.13-4.83C8.08.86,3.6-.09,1.41,1.59s-1.79,5.73.94,9.06a6.73,6.73,0,0,0,5.08,2.56,8,8,0,0,1,6.27,2.95c3.17,4.31,8.08,10.06,8.72,10.73a3.08,3.08,0,0,0,3.95.25A2.29,2.29,0,0,0,26.92,24a2.55,2.55,0,0,0-.26-.3" transform="translate(0 0)"/><path id="패스_7987-2" data-name="패스 7987-2" class="cls-3" d="M32,5.35h0a1,1,0,0,0-1.3,0L25.88,10a1.2,1.2,0,0,1-1.55,0,.9.9,0,0,1-.18-1.26l.12-.12L29,4.19A.92.92,0,0,0,29,2.9a.69.69,0,0,0-.13-.11,1.21,1.21,0,0,0-1.58,0L22.62,7.28a1.2,1.2,0,0,1-1.55,0,.9.9,0,0,1-.16-1.26L21,5.94l4.84-4.57A.76.76,0,0,0,25.91.31l-.1-.09a1,1,0,0,0-1.27,0l-6,5.18a4.85,4.85,0,0,0-1.75,4.34v0A4.55,4.55,0,0,1,16.48,12a4.24,4.24,0,0,0,.92,1l1.78,1.43A6.35,6.35,0,0,1,21.87,14a6.27,6.27,0,0,0,4.8-1.84L32.1,6.48a.75.75,0,0,0,0-1.06L32,5.35M11.53,16.84c-3.71,2.94-8,6.33-8.42,6.74a2.28,2.28,0,0,0-.17,3.22,2,2,0,0,0,.3.28,3,3,0,0,0,4-.12c.4-.39,3.58-4,6.51-7.31-.66-.83-1.28-1.65-1.85-2.41a4.12,4.12,0,0,0-.33-.4" transform="translate(0 0)"/></g></g></g></g></g></svg>