<svg id="구성_요소_39_1" data-name="구성 요소 39 – 1" xmlns="http://www.w3.org/2000/svg" width="14" height="14" viewBox="0 0 14 14">
  <path id="합치기_6" data-name="합치기 6" d="M887.04-665.513c-1-1.312.653-2.254.653-2.254l3.322-3,1.006,1.417-2.782,3.532s-.608.817-1.317.817A1.1,1.1,0,0,1,887.04-665.513Zm8.331-.549s-3.814-5.374-4.221-5.726a2.866,2.866,0,0,0-1.485-.582,3.037,3.037,0,0,1-2.674-1.264,4.734,4.734,0,0,1-.936-3.5,1.617,1.617,0,0,1,1.8-1.494,4.872,4.872,0,0,1,2.517.949,3.128,3.128,0,0,1,1.516,2.389c.125,1.485-.047,1.929.329,2.588s4.643,4.624,4.924,4.945,1.406,1.378.266,2.312a1.169,1.169,0,0,1-.746.3C895.9-665.149,895.37-666.062,895.37-666.062Zm-2.283-6.966a4.022,4.022,0,0,0,.068-1.5,2.479,2.479,0,0,1,.761-1.73l2.658-2.595s.344-.33.623,0a.391.391,0,0,1,0,.573l-2.062,2.2s-.359.474,0,.735a.429.429,0,0,0,.594,0l2.048-2.189s.421-.474.782-.077-.141.826-.141.826l-1.844,2.067a.511.511,0,0,0-.094.659c.249.337.64,0,.64,0s.985-.98,1.626-1.685.766-.919,1.126-.6-.157.781-.157.781-1.453,1.915-2.032,2.527a2.521,2.521,0,0,1-2.094.965,1.98,1.98,0,0,0-1.325.274Z" transform="translate(-886 679)" fill="current"/>
</svg>
