<svg xmlns="http://www.w3.org/2000/svg" viewBox="0 0 20 20"><defs><style>.cls-1{fill:#63656a;}.cls-2{fill:none;}</style></defs><g id="레이어_2" data-name="레이어 2"><g id="레이어_1-2" data-name="레이어 1"><path id="Icon_awesome-calendar-check" data-name="Icon awesome-calendar-check" class="cls-1" d="M16.62,7.37H3.38A.34.34,0,0,1,3,7.05v-1A1.42,1.42,0,0,1,4.5,4.75H6V3.33A.35.35,0,0,1,6.38,3H7.62A.35.35,0,0,1,8,3.33V4.75h4V3.33A.35.35,0,0,1,12.38,3h1.24a.35.35,0,0,1,.38.33V4.75h1.5A1.42,1.42,0,0,1,17,6.06v1A.34.34,0,0,1,16.62,7.37ZM3.38,8.25H16.62a.35.35,0,0,1,.38.33v7.11A1.42,1.42,0,0,1,15.5,17H4.5A1.42,1.42,0,0,1,3,15.69V8.58A.35.35,0,0,1,3.38,8.25Zm10.41,2.62-.88-.77a.41.41,0,0,0-.53,0L9.07,13,7.63,11.7a.41.41,0,0,0-.53,0l-.89.77a.3.3,0,0,0,0,.42l0,0,2.58,2.28a.41.41,0,0,0,.53,0l4.47-3.88a.29.29,0,0,0,0-.42l0,0Z"/><rect id="사각형_25354" data-name="사각형 25354" class="cls-2" width="20" height="20"/><path id="Icon_awesome-calendar-check-2" data-name="Icon awesome-calendar-check-2" class="cls-1" d="M16.62,7.37H3.38A.34.34,0,0,1,3,7.05v-1A1.42,1.42,0,0,1,4.5,4.75H6V3.33A.35.35,0,0,1,6.38,3H7.62A.35.35,0,0,1,8,3.33V4.75h4V3.33A.35.35,0,0,1,12.38,3h1.24a.35.35,0,0,1,.38.33V4.75h1.5A1.42,1.42,0,0,1,17,6.06v1A.34.34,0,0,1,16.62,7.37ZM3.38,8.25H16.62a.35.35,0,0,1,.38.33v7.11A1.42,1.42,0,0,1,15.5,17H4.5A1.42,1.42,0,0,1,3,15.69V8.58A.35.35,0,0,1,3.38,8.25Zm10.41,2.62-.88-.77a.41.41,0,0,0-.53,0L9.07,13,7.63,11.7a.41.41,0,0,0-.53,0l-.89.77a.3.3,0,0,0,0,.42l0,0,2.58,2.28a.41.41,0,0,0,.53,0l4.47-3.88a.29.29,0,0,0,0-.42l0,0Z"/><rect id="사각형_25355" data-name="사각형 25355" class="cls-2" width="20" height="20"/></g></g></svg>