<svg xmlns="http://www.w3.org/2000/svg" xmlns:xlink="http://www.w3.org/1999/xlink" viewBox="0 0 51.19 69.74"><defs><style>.cls-1{fill:none;}.cls-2{clip-path:url(#clip-path);}.cls-3{fill:#e47227;}</style><clipPath id="clip-path" transform="translate(0.02 0.02)"><rect class="cls-1" width="51.17" height="69.72"/></clipPath></defs><g id="레이어_2" data-name="레이어 2"><g id="레이어_1-2" data-name="레이어 1"><g class="cls-2"><g id="그룹_987" data-name="그룹 987"><path id="패스_8034" data-name="패스 8034" class="cls-3" d="M1,41.87H9.88v2.86H4V48H8.6v2.8H4v5.38H0V42.9a1,1,0,0,1,1-1H1" transform="translate(0.02 0.02)"/><path id="패스_8035" data-name="패스 8035" class="cls-3" d="M10.37,49.28v-.47c0-5.07,3.31-7.18,7-7.18,3.83,0,6.89,2.1,6.89,7.1v.47c0,5.08-3.32,7.18-7,7.18-3.85,0-6.89-2.1-6.89-7.1m9.64.17v-.72c0-3-.85-4.19-2.73-4.19s-2.7,1.3-2.7,4v.72c0,3.08.92,4.2,2.76,4.2s2.68-1.3,2.68-4" transform="translate(0.02 0.02)"/><path id="패스_8036" data-name="패스 8036" class="cls-3" d="M25.34,41.87h6c3.64,0,5.45,1.38,5.45,4.46a3.49,3.49,0,0,1-2.37,3.59V50l3.21,6.14H33.47l-2.61-5.2h-1.5v5.2h-4Zm5.5,6.67c1.43,0,2-.68,2-2s-.58-1.93-2-1.93H29.32v3.95Z" transform="translate(0.02 0.02)"/><path id="패스_8037" data-name="패스 8037" class="cls-3" d="M38.28,41.87h4v6.56l4.51-6.56h4.06l-4.7,6.73,5,7.54H46.68L42.3,49.58v6.56h-4Z" transform="translate(0.02 0.02)"/><path id="패스_8038" data-name="패스 8038" class="cls-3" d="M32.76,37.51a17.41,17.41,0,1,0-11.29,2.58,14.16,14.16,0,0,0-2.33-7,4.45,4.45,0,0,0-.72-.9,7.33,7.33,0,0,1-2.59-5.08c0-.15,0-.47,0-.69a2.4,2.4,0,0,1,0-.37c0-.17.08-.42.08-.42l2.5-10.76a.33.33,0,0,1,.38-.25.34.34,0,0,1,.26.32c0,3.37,0,8.63,0,8.69a1.18,1.18,0,0,0,1.32,1,1.2,1.2,0,0,0,1.05-.95h0c.67-2.72,1.33-7.06,1.71-9.73a.31.31,0,0,1,.36-.27.32.32,0,0,1,.27.27c.37,2.67,1,7,1.71,9.73h0a1.2,1.2,0,0,0,2.37-.1c0-.06,0-5.32,0-8.69a.32.32,0,0,1,.63-.07L31,25.67s0,.24.08.42l0,.37a6.52,6.52,0,0,1,0,.68,7.32,7.32,0,0,1-2.59,5.09,4.19,4.19,0,0,0-.72.9A14.17,14.17,0,0,0,25.47,40h0l-.05.51h3.85a16.26,16.26,0,0,1,3.5-3" transform="translate(0.02 0.02)"/><path id="패스_8039" data-name="패스 8039" class="cls-3" d="M46.92,23.45a23.56,23.56,0,0,0-9.8-19.08,23.81,23.81,0,0,0-21.8-3A22.39,22.39,0,0,0,1.5,15,23.8,23.8,0,0,0,2.81,34.57h0l3.47,5.9h1.6L5.22,36h0L4.61,34.9a22.37,22.37,0,0,1-1.8-19.48,21,21,0,0,1,13-12.74A22.45,22.45,0,0,1,36.3,5.5a22.07,22.07,0,0,1,6,29.4l-1,1.62.05,0-2.33,4h1.61l2.85-4.85.06-.11.27-.45.6-1-.06,0a23.42,23.42,0,0,0,2.54-10.6" transform="translate(0.02 0.02)"/><path id="패스_8040" data-name="패스 8040" class="cls-3" d="M23.46,67,18,57.64h-1.6l7.1,12.08,7.1-12.08H29Z" transform="translate(0.02 0.02)"/></g></g></g></g></svg>