<svg xmlns="http://www.w3.org/2000/svg" viewBox="0 0 83.04 65.03"><defs><style>.cls-1{fill:#fe7022;}</style></defs><g id="레이어_2" data-name="레이어 2"><g id="레이어_1-2" data-name="레이어 1"><path class="cls-1" d="M1.12,42.93h13.6A1.11,1.11,0,0,1,15.83,44v2a1.12,1.12,0,0,1-1.11,1.12H4.82v4.87s0,0,0,0H13.5a1.11,1.11,0,0,1,1.11,1.11v2a1.1,1.1,0,0,1-1.1,1.1H4.82v7.12A1.12,1.12,0,0,1,3.7,64.5H1.1A1.09,1.09,0,0,1,0,63.41V44.05A1.12,1.12,0,0,1,1.12,42.93Z"/><path class="cls-1" d="M17.53,53.71c0-6.54,4.95-11.33,11.65-11.33s11.65,4.79,11.65,11.33S35.88,65,29.18,65,17.53,60.24,17.53,53.71Zm18.48,0a6.69,6.69,0,0,0-6.83-7,6.69,6.69,0,0,0-6.83,7,6.83,6.83,0,1,0,13.66,0Z"/><path class="cls-1" d="M56.22,64,52.36,57.7H48.52v5.7a1.11,1.11,0,0,1-1.11,1.1h-2.6a1.11,1.11,0,0,1-1.11-1.11V44a1.11,1.11,0,0,1,1.11-1.11h7.57c5.48,0,8.69,2.91,8.69,7.39a6.72,6.72,0,0,1-4,6.43L61,62.81a1.1,1.1,0,0,1-.93,1.69h-3A1.08,1.08,0,0,1,56.22,64Zm-7.7-10.54h3.65c2.54,0,4.08-1.09,4.08-3.12s-1.54-3.13-4.08-3.13H48.52Z"/><path class="cls-1" d="M72.12,56.27l-2.94,3.39V63.4a1.11,1.11,0,0,1-1.11,1.1H65.46a1.1,1.1,0,0,1-1.1-1.1V44a1.11,1.11,0,0,1,1.1-1.11h2.61A1.11,1.11,0,0,1,69.18,44V53.1l8.3-9.78a1.08,1.08,0,0,1,.84-.39h3a1.11,1.11,0,0,1,.83,1.83L75.24,52.7l7.58,10a1.1,1.1,0,0,1-.89,1.77H78.71a1.09,1.09,0,0,1-.89-.45Z"/><path class="cls-1" d="M53.09,2.94A15,15,0,0,0,44.61,0a16.49,16.49,0,0,0-5.49.73,14.59,14.59,0,0,0-9.65,9.79A15.26,15.26,0,0,0,31.62,24l9.09,11.41A4.11,4.11,0,0,0,44,37h.14a4.12,4.12,0,0,0,3.25-1.57l5.72-7.17,3.63-4.64a15,15,0,0,0,2.58-8.46A15.25,15.25,0,0,0,53.09,2.94ZM50,24.78a10.3,10.3,0,0,0-4.19,5.15.14.14,0,0,1,0,.06l-.07.18a.18.18,0,0,1-.17.12.17.17,0,0,1-.17-.12.25.25,0,0,1,0-.07h0V25a.78.78,0,0,1,.45-.87c.16-.09.33-.16.5-.24a4.61,4.61,0,0,0,3-4.2,17,17,0,0,0-.46-4.08c-.39-1.91-1-3.79-1.41-5.69A.41.41,0,0,0,47,9.63h0c-.19,0-.26.19-.29.3a.81.81,0,0,0,0,.15c0,2.69,0,5.39,0,8.08a2.61,2.61,0,0,1,0,.48.61.61,0,0,1-.44.45c-.51.16-.86-.09-.93-.72-.16-1.53-.71-7.16-.82-8.45,0-.23-.11-.28-.32-.29h0c-.21,0-.3.06-.32.29-.11,1.29-.66,6.92-.82,8.45-.07.63-.42.88-.93.72a.59.59,0,0,1-.43-.45,2,2,0,0,1-.06-.48l0-8.08a.89.89,0,0,0,0-.15c0-.11-.1-.3-.29-.3h0a.39.39,0,0,0-.41.29c-.45,1.9-1,3.78-1.42,5.69a17.55,17.55,0,0,0-.46,4.08,4.62,4.62,0,0,0,3,4.2c.17.08.34.15.51.24a.79.79,0,0,1,.44.87c-.05.47-.1.94-.14,1.41A11.17,11.17,0,1,1,50,24.78Z"/></g></g></svg>