<svg xmlns="http://www.w3.org/2000/svg" viewBox="0 0 274.63 204.28"><defs><style>.cls-1{fill:#909090;}</style></defs><g id="레이어_2" data-name="레이어 2"><g id="레이어_1-2" data-name="레이어 1"><g id="그룹_141" data-name="그룹 141"><path class="cls-1" d="M85,129.83a48.62,48.62,0,0,1-34.4-83h0a48.65,48.65,0,1,1,34.4,83Zm0-85.71A36.79,36.79,0,0,0,58.78,55h0A37.07,37.07,0,1,0,85,44.12ZM54.69,50.9h0Z"/><path class="cls-1" d="M164.22,204.27a5.77,5.77,0,0,1-5.47-3.9,78.53,78.53,0,0,0-48.45-48.44,77.95,77.95,0,0,0-99,48.44A5.78,5.78,0,0,1,.32,196.62,89.48,89.48,0,0,1,114.05,141a90.12,90.12,0,0,1,55.63,55.62,5.77,5.77,0,0,1-5.46,7.65Z"/></g><path class="cls-1" d="M189.64,97.28a48.63,48.63,0,0,1-34.4-83h0a48.65,48.65,0,0,1,83,34.4,48.62,48.62,0,0,1-48.65,48.63Zm0-85.72a36.85,36.85,0,0,0-26.23,10.87h0a37.07,37.07,0,1,0,26.23-10.87Zm-30.31,6.78h0Z"/><path class="cls-1" d="M268.85,171.73a5.79,5.79,0,0,1-5.47-3.91,78,78,0,0,0-120.67-37,5.78,5.78,0,0,1-7-9.23,89.49,89.49,0,0,1,138.56,42.47,5.81,5.81,0,0,1-5.47,7.66Z"/></g></g></svg>