<svg xmlns="http://www.w3.org/2000/svg" viewBox="0 0 167.38 160.19"><defs><style>.cls-1{fill:#f18c34;}</style></defs><g id="레이어_2" data-name="레이어 2"><g id="레이어_1-2" data-name="레이어 1"><g id="그룹_19279" data-name="그룹 19279"><path id="패스_8601" data-name="패스 8601" class="cls-1" d="M126.79,159.33,83.33,136.2,39.62,158.88a7.52,7.52,0,0,1-10.15-3.19,7.44,7.44,0,0,1-.74-4.81l8.58-48.48L2.25,67.84A7.53,7.53,0,0,1,6.49,55l48.76-6.82,22-44a7.54,7.54,0,0,1,13.52.08l21.54,44.27L161,55.85a7.52,7.52,0,0,1,4.1,12.87L129.64,102.9l8.09,48.57a7.53,7.53,0,0,1-10.94,7.86Z"/></g></g></g></svg>