<svg xmlns="http://www.w3.org/2000/svg" viewBox="0 0 178.94 171.75"><defs><style>.cls-1{fill:#f18c34;}</style></defs><g id="레이어_2" data-name="레이어 2"><g id="레이어_1-2" data-name="레이어 1"><path class="cls-1" d="M136.07,171.75a13.36,13.36,0,0,1-6.21-1.53h0L89.07,148.5l-41,21.28a13.07,13.07,0,0,1-10.11.9,13.31,13.31,0,0,1-9.14-15l8.05-45.48L4,77.74A13.34,13.34,0,0,1,3.83,58.9a13.42,13.42,0,0,1,7.64-3.84l45.73-6.4L77.82,7.35A13.24,13.24,0,0,1,85.54.67a13.34,13.34,0,0,1,16.17,6.8L121.93,49l45.67,6.9a13.31,13.31,0,0,1,7.26,22.75l-33.24,32.06,7.59,45.57a13.28,13.28,0,0,1-13.14,15.45ZM135.26,160a1.78,1.78,0,0,0,1.06.18,1.76,1.76,0,0,0,1.47-2l-8.57-51.54,37.62-36.29c.61-1.59.39-2,.19-2.29a1.65,1.65,0,0,0-1.13-.69l-51.71-7.8-22.87-47c-1.5-1.14-2.78-.75-3.15,0L64.84,59.27,13.07,66.51c-1.58,1.09-1.58,2.41-1,3l37.24,36.69-9.12,51.47c.48,1.69,1,1.91,1.21,2a1.73,1.73,0,0,0,1.31-.11l46.43-24.09Z"/></g></g></svg>